<mxfile host="app.diagrams.net" agent="Mozilla/5.0 (Windows NT 10.0; Win64; x64; rv:142.0) Gecko/20100101 Firefox/142.0" version="28.1.0">
  <diagram id="C5RBs43oDa-KdzZeNtuy" name="Snake">
    <mxGraphModel dx="5579" dy="2347" grid="1" gridSize="10" guides="1" tooltips="1" connect="1" arrows="1" fold="1" page="0" pageScale="1" pageWidth="827" pageHeight="1169" math="0" shadow="0">
      <root>
        <mxCell id="WIyWlLk6GJQsqaUBKTNV-0" />
        <mxCell id="WIyWlLk6GJQsqaUBKTNV-1" parent="WIyWlLk6GJQsqaUBKTNV-0" />
        <mxCell id="zkfFHV4jXpPFQw0GAbJ--0" value="Snake" style="swimlane;fontStyle=2;align=center;verticalAlign=top;childLayout=stackLayout;horizontal=1;startSize=26;horizontalStack=0;resizeParent=1;resizeLast=0;collapsible=1;marginBottom=0;rounded=0;shadow=0;strokeWidth=1;" parent="WIyWlLk6GJQsqaUBKTNV-1" vertex="1">
          <mxGeometry x="-960" y="-40" width="720" height="200" as="geometry">
            <mxRectangle x="230" y="140" width="160" height="26" as="alternateBounds" />
          </mxGeometry>
        </mxCell>
        <mxCell id="zkfFHV4jXpPFQw0GAbJ--3" value="- snakeLength : int = 0&#xa;- snake : tPoint = {7, 7}&#xa;- snakeDirection : int = 0&#xa;- snakeTail : tPoint[256] = {0}&#xa;- snakeDirection : int = 0" style="text;align=left;verticalAlign=top;spacingLeft=4;spacingRight=4;overflow=hidden;rotatable=0;points=[[0,0.5],[1,0.5]];portConstraint=eastwest;rounded=0;shadow=0;html=0;" parent="zkfFHV4jXpPFQw0GAbJ--0" vertex="1">
          <mxGeometry y="26" width="720" height="84" as="geometry" />
        </mxCell>
        <mxCell id="zkfFHV4jXpPFQw0GAbJ--4" value="" style="line;html=1;strokeWidth=1;align=left;verticalAlign=middle;spacingTop=-1;spacingLeft=3;spacingRight=3;rotatable=0;labelPosition=right;points=[];portConstraint=eastwest;" parent="zkfFHV4jXpPFQw0GAbJ--0" vertex="1">
          <mxGeometry y="110" width="720" height="8" as="geometry" />
        </mxCell>
        <mxCell id="zkfFHV4jXpPFQw0GAbJ--5" value="- SnakeSetup(image : uint8_t[16][16], snake : tPoint) : void&#xa;- UpdateSnakeTail(snake : tPoint, snakeTail : tPoint[256], snakeLength : int, image : uint8_t[16][16]) : void&#xa;- SnakeMovement(snakeDirection : int&amp;, snake : *tPoint) : void&#xa;- ChangeSnakeDirection(leftButton : QwiicButton, rightButton : QwiicButton, snakeDirection : int&amp;, tempTime : unsigned long[4]) : void&#xa;" style="text;align=left;verticalAlign=top;spacingLeft=4;spacingRight=4;overflow=hidden;rotatable=0;points=[[0,0.5],[1,0.5]];portConstraint=eastwest;" parent="zkfFHV4jXpPFQw0GAbJ--0" vertex="1">
          <mxGeometry y="118" width="720" height="68" as="geometry" />
        </mxCell>
        <mxCell id="EPb7erDvm0e9K2WXAWxK-14" value="Snake game" style="swimlane;fontStyle=2;align=center;verticalAlign=top;childLayout=stackLayout;horizontal=1;startSize=26;horizontalStack=0;resizeParent=1;resizeLast=0;collapsible=1;marginBottom=0;rounded=0;shadow=0;strokeWidth=1;" vertex="1" parent="WIyWlLk6GJQsqaUBKTNV-1">
          <mxGeometry x="-620" y="-320" width="730" height="220" as="geometry">
            <mxRectangle x="230" y="140" width="160" height="26" as="alternateBounds" />
          </mxGeometry>
        </mxCell>
        <mxCell id="EPb7erDvm0e9K2WXAWxK-15" value="- gameOver : bool = false&#xa;- playAgainTimer : SimpleSoftTimer(2000)&#xa;- difficulty : int = 1&#xa;" style="text;align=left;verticalAlign=top;spacingLeft=4;spacingRight=4;overflow=hidden;rotatable=0;points=[[0,0.5],[1,0.5]];portConstraint=eastwest;rounded=0;shadow=0;html=0;" vertex="1" parent="EPb7erDvm0e9K2WXAWxK-14">
          <mxGeometry y="26" width="730" height="54" as="geometry" />
        </mxCell>
        <mxCell id="EPb7erDvm0e9K2WXAWxK-16" value="" style="line;html=1;strokeWidth=1;align=left;verticalAlign=middle;spacingTop=-1;spacingLeft=3;spacingRight=3;rotatable=0;labelPosition=right;points=[];portConstraint=eastwest;" vertex="1" parent="EPb7erDvm0e9K2WXAWxK-14">
          <mxGeometry y="80" width="730" height="8" as="geometry" />
        </mxCell>
        <mxCell id="EPb7erDvm0e9K2WXAWxK-17" value="- SnakeTitleScreen(image : uint8_t[16][16]) : void&#xa;- SchweirigkeitsScreen(image : uint8_t[16][16]) : void&#xa;- ChooseDifficulty(image : uint8_t[16][16], buffer : uint8_t[256], leftButton : QwiicButton, rightButton : QwiicButton) : int&#xa;- CheckForGameOver(snake : *tPoint, snakeTail : tPoint[256], snakeLength : int, gameOver : bool&amp;) : void&#xa;- DrawSnakenApple(snake : *tPoint, snakeTail : tPoint[256], image : uint8_t[16][16], buffer : uint8_t[256], snakeLenth : int) : void&#xa;- SnakeGameOverScreen(image : uint8_t[16][16]) : void&#xa;- SnakeStartNewScreen(image : uint8_t[16][16]) : void&#xa;+ PlaySnake(image : uint8_t[16][16], buffer : uint8_t[256], leftButton : QwiicButton, rightButton : QwiicButton) : void" style="text;align=left;verticalAlign=top;spacingLeft=4;spacingRight=4;overflow=hidden;rotatable=0;points=[[0,0.5],[1,0.5]];portConstraint=eastwest;" vertex="1" parent="EPb7erDvm0e9K2WXAWxK-14">
          <mxGeometry y="88" width="730" height="132" as="geometry" />
        </mxCell>
        <mxCell id="EPb7erDvm0e9K2WXAWxK-13" value="" style="edgeStyle=none;curved=1;rounded=0;orthogonalLoop=1;jettySize=auto;html=1;fontSize=12;startSize=8;endSize=8;entryX=0.51;entryY=1;entryDx=0;entryDy=0;entryPerimeter=0;exitX=0.5;exitY=0;exitDx=0;exitDy=0;" edge="1" parent="WIyWlLk6GJQsqaUBKTNV-1" source="zkfFHV4jXpPFQw0GAbJ--0" target="EPb7erDvm0e9K2WXAWxK-17">
          <mxGeometry relative="1" as="geometry">
            <mxPoint x="-390" y="-41.00235294117647" as="sourcePoint" />
            <mxPoint x="-239.26999999999998" y="-40.91599999999994" as="targetPoint" />
          </mxGeometry>
        </mxCell>
        <mxCell id="EPb7erDvm0e9K2WXAWxK-24" value="Apple" style="swimlane;fontStyle=2;align=center;verticalAlign=top;childLayout=stackLayout;horizontal=1;startSize=26;horizontalStack=0;resizeParent=1;resizeLast=0;collapsible=1;marginBottom=0;rounded=0;shadow=0;strokeWidth=1;" vertex="1" parent="WIyWlLk6GJQsqaUBKTNV-1">
          <mxGeometry x="-220" y="-30" width="510" height="110" as="geometry">
            <mxRectangle x="230" y="140" width="160" height="26" as="alternateBounds" />
          </mxGeometry>
        </mxCell>
        <mxCell id="EPb7erDvm0e9K2WXAWxK-25" value="- apple : tPoint = {0}" style="text;align=left;verticalAlign=top;spacingLeft=4;spacingRight=4;overflow=hidden;rotatable=0;points=[[0,0.5],[1,0.5]];portConstraint=eastwest;rounded=0;shadow=0;html=0;" vertex="1" parent="EPb7erDvm0e9K2WXAWxK-24">
          <mxGeometry y="26" width="510" height="34" as="geometry" />
        </mxCell>
        <mxCell id="EPb7erDvm0e9K2WXAWxK-26" value="" style="line;html=1;strokeWidth=1;align=left;verticalAlign=middle;spacingTop=-1;spacingLeft=3;spacingRight=3;rotatable=0;labelPosition=right;points=[];portConstraint=eastwest;" vertex="1" parent="EPb7erDvm0e9K2WXAWxK-24">
          <mxGeometry y="60" width="510" height="8" as="geometry" />
        </mxCell>
        <mxCell id="EPb7erDvm0e9K2WXAWxK-27" value="- PlantApple(apple : *tPoint, snake : *tPoint, snakeTail : tPoint[256], snakeLength : int) : void" style="text;align=left;verticalAlign=top;spacingLeft=4;spacingRight=4;overflow=hidden;rotatable=0;points=[[0,0.5],[1,0.5]];portConstraint=eastwest;" vertex="1" parent="EPb7erDvm0e9K2WXAWxK-24">
          <mxGeometry y="68" width="510" height="42" as="geometry" />
        </mxCell>
        <mxCell id="EPb7erDvm0e9K2WXAWxK-30" value="EchoPlay" style="swimlane;fontStyle=2;align=center;verticalAlign=top;childLayout=stackLayout;horizontal=1;startSize=26;horizontalStack=0;resizeParent=1;resizeLast=0;collapsible=1;marginBottom=0;rounded=0;shadow=0;strokeWidth=1;" vertex="1" parent="WIyWlLk6GJQsqaUBKTNV-1">
          <mxGeometry x="-1520" y="-800" width="730" height="230" as="geometry">
            <mxRectangle x="230" y="140" width="160" height="26" as="alternateBounds" />
          </mxGeometry>
        </mxCell>
        <mxCell id="EPb7erDvm0e9K2WXAWxK-31" value="..." style="text;align=left;verticalAlign=top;spacingLeft=4;spacingRight=4;overflow=hidden;rotatable=0;points=[[0,0.5],[1,0.5]];portConstraint=eastwest;rounded=0;shadow=0;html=0;" vertex="1" parent="EPb7erDvm0e9K2WXAWxK-30">
          <mxGeometry y="26" width="730" height="84" as="geometry" />
        </mxCell>
        <mxCell id="EPb7erDvm0e9K2WXAWxK-32" value="" style="line;html=1;strokeWidth=1;align=left;verticalAlign=middle;spacingTop=-1;spacingLeft=3;spacingRight=3;rotatable=0;labelPosition=right;points=[];portConstraint=eastwest;" vertex="1" parent="EPb7erDvm0e9K2WXAWxK-30">
          <mxGeometry y="110" width="730" height="8" as="geometry" />
        </mxCell>
        <mxCell id="EPb7erDvm0e9K2WXAWxK-33" value="..." style="text;align=left;verticalAlign=top;spacingLeft=4;spacingRight=4;overflow=hidden;rotatable=0;points=[[0,0.5],[1,0.5]];portConstraint=eastwest;" vertex="1" parent="EPb7erDvm0e9K2WXAWxK-30">
          <mxGeometry y="118" width="730" height="112" as="geometry" />
        </mxCell>
        <mxCell id="EPb7erDvm0e9K2WXAWxK-44" value="" style="edgeStyle=none;curved=1;rounded=0;orthogonalLoop=1;jettySize=auto;html=1;fontSize=12;startSize=8;endSize=8;entryX=1.001;entryY=0.793;entryDx=0;entryDy=0;entryPerimeter=0;exitX=-0.006;exitY=0.607;exitDx=0;exitDy=0;exitPerimeter=0;" edge="1" parent="WIyWlLk6GJQsqaUBKTNV-1" source="EPb7erDvm0e9K2WXAWxK-42" target="EPb7erDvm0e9K2WXAWxK-37">
          <mxGeometry relative="1" as="geometry">
            <mxPoint x="99.99999999999955" y="-984.883181818182" as="sourcePoint" />
            <mxPoint x="250" y="-989.9968181818183" as="targetPoint" />
          </mxGeometry>
        </mxCell>
        <mxCell id="EPb7erDvm0e9K2WXAWxK-58" value="" style="edgeStyle=none;curved=1;rounded=0;orthogonalLoop=1;jettySize=auto;html=1;fontSize=12;startSize=8;endSize=8;" edge="1" parent="WIyWlLk6GJQsqaUBKTNV-1" source="EPb7erDvm0e9K2WXAWxK-36" target="EPb7erDvm0e9K2WXAWxK-55">
          <mxGeometry relative="1" as="geometry" />
        </mxCell>
        <mxCell id="EPb7erDvm0e9K2WXAWxK-36" value="Main " style="swimlane;fontStyle=2;align=center;verticalAlign=top;childLayout=stackLayout;horizontal=1;startSize=26;horizontalStack=0;resizeParent=1;resizeLast=0;collapsible=1;marginBottom=0;rounded=0;shadow=0;strokeWidth=1;" vertex="1" parent="WIyWlLk6GJQsqaUBKTNV-1">
          <mxGeometry x="-625" y="-1070" width="730" height="230" as="geometry">
            <mxRectangle x="230" y="140" width="160" height="26" as="alternateBounds" />
          </mxGeometry>
        </mxCell>
        <mxCell id="EPb7erDvm0e9K2WXAWxK-37" value="- buffer : uint8_t[256] = {0}&#xa;- image : uint8_t[16][16] = {0}" style="text;align=left;verticalAlign=top;spacingLeft=4;spacingRight=4;overflow=hidden;rotatable=0;points=[[0,0.5],[1,0.5]];portConstraint=eastwest;rounded=0;shadow=0;html=0;" vertex="1" parent="EPb7erDvm0e9K2WXAWxK-36">
          <mxGeometry y="26" width="730" height="84" as="geometry" />
        </mxCell>
        <mxCell id="EPb7erDvm0e9K2WXAWxK-38" value="" style="line;html=1;strokeWidth=1;align=left;verticalAlign=middle;spacingTop=-1;spacingLeft=3;spacingRight=3;rotatable=0;labelPosition=right;points=[];portConstraint=eastwest;" vertex="1" parent="EPb7erDvm0e9K2WXAWxK-36">
          <mxGeometry y="110" width="730" height="8" as="geometry" />
        </mxCell>
        <mxCell id="EPb7erDvm0e9K2WXAWxK-41" value="Pins" style="swimlane;fontStyle=2;align=center;verticalAlign=top;childLayout=stackLayout;horizontal=1;startSize=26;horizontalStack=0;resizeParent=1;resizeLast=0;collapsible=1;marginBottom=0;rounded=0;shadow=0;strokeWidth=1;" vertex="1" parent="WIyWlLk6GJQsqaUBKTNV-1">
          <mxGeometry x="250" y="-1060" width="260" height="180" as="geometry">
            <mxRectangle x="230" y="140" width="160" height="26" as="alternateBounds" />
          </mxGeometry>
        </mxCell>
        <mxCell id="EPb7erDvm0e9K2WXAWxK-42" value="- pin_enable : char {readOnly}&#xa;- pin_data : char {readOnly}&#xa;- pin_clock : char {readOnly}&#xa;- pin_latch : char {readOnly}&#xa;- pin_SW1 : char {readOnly}&#xa;- pin_SW2 : char {readOnly}" style="text;align=left;verticalAlign=top;spacingLeft=4;spacingRight=4;overflow=hidden;rotatable=0;points=[[0,0.5],[1,0.5]];portConstraint=eastwest;rounded=0;shadow=0;html=0;" vertex="1" parent="EPb7erDvm0e9K2WXAWxK-41">
          <mxGeometry y="26" width="260" height="104" as="geometry" />
        </mxCell>
        <mxCell id="EPb7erDvm0e9K2WXAWxK-43" value="" style="line;html=1;strokeWidth=1;align=left;verticalAlign=middle;spacingTop=-1;spacingLeft=3;spacingRight=3;rotatable=0;labelPosition=right;points=[];portConstraint=eastwest;" vertex="1" parent="EPb7erDvm0e9K2WXAWxK-41">
          <mxGeometry y="130" width="260" height="8" as="geometry" />
        </mxCell>
        <mxCell id="EPb7erDvm0e9K2WXAWxK-46" value="- PreparePins() : void" style="text;align=left;verticalAlign=top;spacingLeft=4;spacingRight=4;overflow=hidden;rotatable=0;points=[[0,0.5],[1,0.5]];portConstraint=eastwest;rounded=0;shadow=0;html=0;" vertex="1" parent="EPb7erDvm0e9K2WXAWxK-41">
          <mxGeometry y="138" width="260" height="42" as="geometry" />
        </mxCell>
        <mxCell id="EPb7erDvm0e9K2WXAWxK-64" value="" style="edgeStyle=none;curved=1;rounded=0;orthogonalLoop=1;jettySize=auto;html=1;fontSize=12;startSize=8;endSize=8;exitX=0.5;exitY=1;exitDx=0;exitDy=0;" edge="1" parent="WIyWlLk6GJQsqaUBKTNV-1" source="EPb7erDvm0e9K2WXAWxK-55" target="EPb7erDvm0e9K2WXAWxK-60">
          <mxGeometry relative="1" as="geometry" />
        </mxCell>
        <mxCell id="EPb7erDvm0e9K2WXAWxK-55" value="Game Selector" style="swimlane;fontStyle=2;align=center;verticalAlign=top;childLayout=stackLayout;horizontal=1;startSize=26;horizontalStack=0;resizeParent=1;resizeLast=0;collapsible=1;marginBottom=0;rounded=0;shadow=0;strokeWidth=1;" vertex="1" parent="WIyWlLk6GJQsqaUBKTNV-1">
          <mxGeometry x="-625" y="-780" width="730" height="210" as="geometry">
            <mxRectangle x="230" y="140" width="160" height="26" as="alternateBounds" />
          </mxGeometry>
        </mxCell>
        <mxCell id="EPb7erDvm0e9K2WXAWxK-56" value="..." style="text;align=left;verticalAlign=top;spacingLeft=4;spacingRight=4;overflow=hidden;rotatable=0;points=[[0,0.5],[1,0.5]];portConstraint=eastwest;rounded=0;shadow=0;html=0;" vertex="1" parent="EPb7erDvm0e9K2WXAWxK-55">
          <mxGeometry y="26" width="730" height="84" as="geometry" />
        </mxCell>
        <mxCell id="EPb7erDvm0e9K2WXAWxK-57" value="" style="line;html=1;strokeWidth=1;align=left;verticalAlign=middle;spacingTop=-1;spacingLeft=3;spacingRight=3;rotatable=0;labelPosition=right;points=[];portConstraint=eastwest;" vertex="1" parent="EPb7erDvm0e9K2WXAWxK-55">
          <mxGeometry y="110" width="730" height="8" as="geometry" />
        </mxCell>
        <mxCell id="EPb7erDvm0e9K2WXAWxK-59" value="..." style="text;align=left;verticalAlign=top;spacingLeft=4;spacingRight=4;overflow=hidden;rotatable=0;points=[[0,0.5],[1,0.5]];portConstraint=eastwest;rounded=0;shadow=0;html=0;" vertex="1" parent="EPb7erDvm0e9K2WXAWxK-55">
          <mxGeometry y="118" width="730" height="84" as="geometry" />
        </mxCell>
        <mxCell id="EPb7erDvm0e9K2WXAWxK-28" value="" style="edgeStyle=none;curved=1;rounded=0;orthogonalLoop=1;jettySize=auto;html=1;fontSize=12;startSize=8;endSize=8;entryX=0.73;entryY=0.998;entryDx=0;entryDy=0;entryPerimeter=0;exitX=0.301;exitY=-0.029;exitDx=0;exitDy=0;exitPerimeter=0;" edge="1" parent="WIyWlLk6GJQsqaUBKTNV-1" source="EPb7erDvm0e9K2WXAWxK-24" target="EPb7erDvm0e9K2WXAWxK-17">
          <mxGeometry relative="1" as="geometry">
            <mxPoint x="-140.00418604651145" y="-74" as="sourcePoint" />
            <mxPoint x="-74.8879069767438" y="-24" as="targetPoint" />
          </mxGeometry>
        </mxCell>
        <mxCell id="EPb7erDvm0e9K2WXAWxK-60" value="Car Jump" style="swimlane;fontStyle=2;align=center;verticalAlign=top;childLayout=stackLayout;horizontal=1;startSize=26;horizontalStack=0;resizeParent=1;resizeLast=0;collapsible=1;marginBottom=0;rounded=0;shadow=0;strokeWidth=1;" vertex="1" parent="WIyWlLk6GJQsqaUBKTNV-1">
          <mxGeometry x="410" y="-340" width="730" height="210" as="geometry">
            <mxRectangle x="230" y="140" width="160" height="26" as="alternateBounds" />
          </mxGeometry>
        </mxCell>
        <mxCell id="EPb7erDvm0e9K2WXAWxK-61" value="..." style="text;align=left;verticalAlign=top;spacingLeft=4;spacingRight=4;overflow=hidden;rotatable=0;points=[[0,0.5],[1,0.5]];portConstraint=eastwest;rounded=0;shadow=0;html=0;" vertex="1" parent="EPb7erDvm0e9K2WXAWxK-60">
          <mxGeometry y="26" width="730" height="84" as="geometry" />
        </mxCell>
        <mxCell id="EPb7erDvm0e9K2WXAWxK-62" value="" style="line;html=1;strokeWidth=1;align=left;verticalAlign=middle;spacingTop=-1;spacingLeft=3;spacingRight=3;rotatable=0;labelPosition=right;points=[];portConstraint=eastwest;" vertex="1" parent="EPb7erDvm0e9K2WXAWxK-60">
          <mxGeometry y="110" width="730" height="8" as="geometry" />
        </mxCell>
        <mxCell id="EPb7erDvm0e9K2WXAWxK-63" value="..." style="text;align=left;verticalAlign=top;spacingLeft=4;spacingRight=4;overflow=hidden;rotatable=0;points=[[0,0.5],[1,0.5]];portConstraint=eastwest;rounded=0;shadow=0;html=0;" vertex="1" parent="EPb7erDvm0e9K2WXAWxK-60">
          <mxGeometry y="118" width="730" height="84" as="geometry" />
        </mxCell>
        <mxCell id="EPb7erDvm0e9K2WXAWxK-65" value="" style="edgeStyle=none;curved=1;rounded=0;orthogonalLoop=1;jettySize=auto;html=1;fontSize=12;startSize=8;endSize=8;entryX=0.5;entryY=0;entryDx=0;entryDy=0;exitX=0.5;exitY=1;exitDx=0;exitDy=0;" edge="1" parent="WIyWlLk6GJQsqaUBKTNV-1" source="EPb7erDvm0e9K2WXAWxK-55" target="EPb7erDvm0e9K2WXAWxK-14">
          <mxGeometry relative="1" as="geometry">
            <mxPoint x="-210" y="-460" as="sourcePoint" />
            <mxPoint x="340" y="-220" as="targetPoint" />
          </mxGeometry>
        </mxCell>
        <mxCell id="EPb7erDvm0e9K2WXAWxK-70" value="" style="edgeStyle=none;curved=1;rounded=0;orthogonalLoop=1;jettySize=auto;html=1;fontSize=12;startSize=8;endSize=8;entryX=0.5;entryY=0;entryDx=0;entryDy=0;exitX=0.5;exitY=1;exitDx=0;exitDy=0;" edge="1" parent="WIyWlLk6GJQsqaUBKTNV-1" target="EPb7erDvm0e9K2WXAWxK-71" source="EPb7erDvm0e9K2WXAWxK-55">
          <mxGeometry relative="1" as="geometry">
            <mxPoint x="-340" y="-500" as="sourcePoint" />
            <mxPoint x="-1479.402985074627" y="-320" as="targetPoint" />
          </mxGeometry>
        </mxCell>
        <mxCell id="EPb7erDvm0e9K2WXAWxK-71" value="Connect 4" style="swimlane;fontStyle=2;align=center;verticalAlign=top;childLayout=stackLayout;horizontal=1;startSize=26;horizontalStack=0;resizeParent=1;resizeLast=0;collapsible=1;marginBottom=0;rounded=0;shadow=0;strokeWidth=1;" vertex="1" parent="WIyWlLk6GJQsqaUBKTNV-1">
          <mxGeometry x="-1790" y="-340" width="730" height="210" as="geometry">
            <mxRectangle x="230" y="140" width="160" height="26" as="alternateBounds" />
          </mxGeometry>
        </mxCell>
        <mxCell id="EPb7erDvm0e9K2WXAWxK-72" value="..." style="text;align=left;verticalAlign=top;spacingLeft=4;spacingRight=4;overflow=hidden;rotatable=0;points=[[0,0.5],[1,0.5]];portConstraint=eastwest;rounded=0;shadow=0;html=0;" vertex="1" parent="EPb7erDvm0e9K2WXAWxK-71">
          <mxGeometry y="26" width="730" height="84" as="geometry" />
        </mxCell>
        <mxCell id="EPb7erDvm0e9K2WXAWxK-73" value="" style="line;html=1;strokeWidth=1;align=left;verticalAlign=middle;spacingTop=-1;spacingLeft=3;spacingRight=3;rotatable=0;labelPosition=right;points=[];portConstraint=eastwest;" vertex="1" parent="EPb7erDvm0e9K2WXAWxK-71">
          <mxGeometry y="110" width="730" height="8" as="geometry" />
        </mxCell>
        <mxCell id="EPb7erDvm0e9K2WXAWxK-74" value="..." style="text;align=left;verticalAlign=top;spacingLeft=4;spacingRight=4;overflow=hidden;rotatable=0;points=[[0,0.5],[1,0.5]];portConstraint=eastwest;rounded=0;shadow=0;html=0;" vertex="1" parent="EPb7erDvm0e9K2WXAWxK-71">
          <mxGeometry y="118" width="730" height="84" as="geometry" />
        </mxCell>
        <mxCell id="EPb7erDvm0e9K2WXAWxK-75" value="" style="edgeStyle=none;curved=1;rounded=0;orthogonalLoop=1;jettySize=auto;html=1;fontSize=12;startSize=8;endSize=8;entryX=0.5;entryY=0;entryDx=0;entryDy=0;" edge="1" parent="WIyWlLk6GJQsqaUBKTNV-1" target="EPb7erDvm0e9K2WXAWxK-76">
          <mxGeometry relative="1" as="geometry">
            <mxPoint x="-260" y="-570" as="sourcePoint" />
          </mxGeometry>
        </mxCell>
        <mxCell id="EPb7erDvm0e9K2WXAWxK-76" value="Clock" style="swimlane;fontStyle=2;align=center;verticalAlign=top;childLayout=stackLayout;horizontal=1;startSize=26;horizontalStack=0;resizeParent=1;resizeLast=0;collapsible=1;marginBottom=0;rounded=0;shadow=0;strokeWidth=1;" vertex="1" parent="WIyWlLk6GJQsqaUBKTNV-1">
          <mxGeometry x="1430" y="-340" width="730" height="210" as="geometry">
            <mxRectangle x="230" y="140" width="160" height="26" as="alternateBounds" />
          </mxGeometry>
        </mxCell>
        <mxCell id="EPb7erDvm0e9K2WXAWxK-77" value="..." style="text;align=left;verticalAlign=top;spacingLeft=4;spacingRight=4;overflow=hidden;rotatable=0;points=[[0,0.5],[1,0.5]];portConstraint=eastwest;rounded=0;shadow=0;html=0;" vertex="1" parent="EPb7erDvm0e9K2WXAWxK-76">
          <mxGeometry y="26" width="730" height="84" as="geometry" />
        </mxCell>
        <mxCell id="EPb7erDvm0e9K2WXAWxK-78" value="" style="line;html=1;strokeWidth=1;align=left;verticalAlign=middle;spacingTop=-1;spacingLeft=3;spacingRight=3;rotatable=0;labelPosition=right;points=[];portConstraint=eastwest;" vertex="1" parent="EPb7erDvm0e9K2WXAWxK-76">
          <mxGeometry y="110" width="730" height="8" as="geometry" />
        </mxCell>
        <mxCell id="EPb7erDvm0e9K2WXAWxK-79" value="..." style="text;align=left;verticalAlign=top;spacingLeft=4;spacingRight=4;overflow=hidden;rotatable=0;points=[[0,0.5],[1,0.5]];portConstraint=eastwest;rounded=0;shadow=0;html=0;" vertex="1" parent="EPb7erDvm0e9K2WXAWxK-76">
          <mxGeometry y="118" width="730" height="84" as="geometry" />
        </mxCell>
        <mxCell id="EPb7erDvm0e9K2WXAWxK-85" value="" style="edgeStyle=none;curved=1;rounded=0;orthogonalLoop=1;jettySize=auto;html=1;fontSize=12;startSize=8;endSize=8;entryX=0.5;entryY=0;entryDx=0;entryDy=0;" edge="1" parent="WIyWlLk6GJQsqaUBKTNV-1" target="EPb7erDvm0e9K2WXAWxK-86">
          <mxGeometry relative="1" as="geometry">
            <mxPoint x="-260" y="-570" as="sourcePoint" />
            <mxPoint x="-2559.402985074627" y="-320" as="targetPoint" />
          </mxGeometry>
        </mxCell>
        <mxCell id="EPb7erDvm0e9K2WXAWxK-86" value="Box Connector" style="swimlane;fontStyle=2;align=center;verticalAlign=top;childLayout=stackLayout;horizontal=1;startSize=26;horizontalStack=0;resizeParent=1;resizeLast=0;collapsible=1;marginBottom=0;rounded=0;shadow=0;strokeWidth=1;" vertex="1" parent="WIyWlLk6GJQsqaUBKTNV-1">
          <mxGeometry x="-2870" y="-340" width="730" height="210" as="geometry">
            <mxRectangle x="230" y="140" width="160" height="26" as="alternateBounds" />
          </mxGeometry>
        </mxCell>
        <mxCell id="EPb7erDvm0e9K2WXAWxK-87" value="..." style="text;align=left;verticalAlign=top;spacingLeft=4;spacingRight=4;overflow=hidden;rotatable=0;points=[[0,0.5],[1,0.5]];portConstraint=eastwest;rounded=0;shadow=0;html=0;" vertex="1" parent="EPb7erDvm0e9K2WXAWxK-86">
          <mxGeometry y="26" width="730" height="84" as="geometry" />
        </mxCell>
        <mxCell id="EPb7erDvm0e9K2WXAWxK-88" value="" style="line;html=1;strokeWidth=1;align=left;verticalAlign=middle;spacingTop=-1;spacingLeft=3;spacingRight=3;rotatable=0;labelPosition=right;points=[];portConstraint=eastwest;" vertex="1" parent="EPb7erDvm0e9K2WXAWxK-86">
          <mxGeometry y="110" width="730" height="8" as="geometry" />
        </mxCell>
        <mxCell id="EPb7erDvm0e9K2WXAWxK-89" value="..." style="text;align=left;verticalAlign=top;spacingLeft=4;spacingRight=4;overflow=hidden;rotatable=0;points=[[0,0.5],[1,0.5]];portConstraint=eastwest;rounded=0;shadow=0;html=0;" vertex="1" parent="EPb7erDvm0e9K2WXAWxK-86">
          <mxGeometry y="118" width="730" height="84" as="geometry" />
        </mxCell>
      </root>
    </mxGraphModel>
  </diagram>
</mxfile>
